<svg xmlns="http://www.w3.org/2000/svg" width="200" height="200" viewBox="0 0 200 200"><defs><linearGradient id="bgGradient" x1="0%" x2="100%" y1="0%" y2="100%"><stop offset="0%" stop-color="#5433FF"/><stop offset="50%" stop-color="#20BDFF"/><stop offset="100%" stop-color="#A5FECB"/></linearGradient><linearGradient id="neonGradient" x1="0%" x2="100%" y1="0%" y2="100%"><stop offset="0%" stop-color="#FF00E4"/><stop offset="100%" stop-color="#00E1FF"/></linearGradient><filter id="neonGlow" width="200%" height="200%" x="-50%" y="-50%"><feGaussianBlur result="blur" stdDeviation="5"/><feComposite in="SourceGraphic" in2="blur" operator="over"/></filter><filter id="softShadow" width="120%" height="120%" x="-10%" y="-10%"><feDropShadow dx="0" dy="2" flood-color="#000" flood-opacity=".2" stdDeviation="2"/></filter></defs><rect width="160" height="160" x="20" y="20" fill="url(#bgGradient)" filter="url(#softShadow)" rx="40"/><circle cx="40" cy="40" r="60" fill="#5433FF" opacity=".1"/><circle cx="160" cy="160" r="60" fill="#A5FECB" opacity=".1"/><g opacity=".7"><line x1="30" x2="70" y1="50" y2="50" stroke="#fff" stroke-width="1.5"/><line x1="35" x2="65" y1="55" y2="55" stroke="#fff" stroke-width="1.5"/><line x1="40" x2="60" y1="60" y2="60" stroke="#fff" stroke-width="1.5"/><line x1="130" x2="170" y1="140" y2="140" stroke="#fff" stroke-width="1.5"/><line x1="135" x2="165" y1="145" y2="145" stroke="#fff" stroke-width="1.5"/><line x1="140" x2="160" y1="150" y2="150" stroke="#fff" stroke-width="1.5"/><line x1="30" x2="50" y1="65" y2="65" stroke="#fff" stroke-width="1.5"/><line x1="145" x2="165" y1="135" y2="135" stroke="#fff" stroke-width="1.5"/></g><g transform="translate(100, 100) scale(1.8)"><circle cx="0" cy="-10" r="12" fill="none" stroke="url(#neonGradient)" stroke-width="3" filter="url(#neonGlow)"/><circle cx="0" cy="-10" r="6" fill="#fff" opacity=".8"/><line x1="0" x2="0" y1="0" y2="20" stroke="#fff" stroke-linecap="round" stroke-width="3"/><g><path fill="#fff" d="M0,0 L15,0 L12,6 L3,6 Z" transform="translate(0, 15)"/><path fill="#fff" d="M0,9 L10,9 L8,15 L2,15 Z" transform="translate(0, 15)"/></g></g><g fill="#fff" opacity=".6" transform="translate(130, 60)"><rect width="8" height="8" x="0" y="0" rx="1"/><rect width="8" height="8" x="10" y="0" rx="1"/><rect width="8" height="8" x="20" y="0" rx="1"/><rect width="8" height="8" x="0" y="10" rx="1"/><rect width="8" height="8" x="10" y="10" rx="1"/><rect width="8" height="8" x="20" y="10" rx="1"/><rect width="8" height="8" x="0" y="20" rx="1"/><rect width="8" height="8" x="10" y="20" rx="1"/></g><g fill="#fff" opacity=".4" transform="translate(35, 60)"><rect width="6" height="6" x="0" y="0" rx="1"/><rect width="6" height="6" x="8" y="0" rx="1"/><rect width="6" height="6" x="16" y="0" rx="1"/><rect width="6" height="6" x="0" y="8" rx="1"/><rect width="6" height="6" x="8" y="8" rx="1"/><rect width="6" height="6" x="0" y="16" rx="1"/></g><path fill="none" stroke="#fff" stroke-width="2" d="M45,135 Q60,125 75,135 Q90,145 105,135 Q120,125 135,135" opacity=".8"/><circle cx="100" cy="155" r="3" fill="#fff" opacity=".9"/><circle cx="90" cy="155" r="2" fill="#fff" opacity=".7"/><circle cx="110" cy="155" r="2" fill="#fff" opacity=".7"/><circle cx="80" cy="155" r="1" fill="#fff" opacity=".5"/><circle cx="120" cy="155" r="1" fill="#fff" opacity=".5"/></svg>